<svg width="189" height="40" viewBox="0 0 189 40" fill="none" xmlns="http://www.w3.org/2000/svg">
    <path d="M7.5,10C7.5,8.619 8.619,7.5 10,7.5L13.75,7.5C15.131,7.5 16.25,8.619 16.25,10L16.25,30C16.25,31.381 15.131,32.5 13.75,32.5L10,32.5C8.619,32.5 7.5,31.381 7.5,30L7.5,10ZM13.75,10L10,10L10,30L13.75,30L13.75,10Z" style="fill:rgb(0,179,126);"/>
    <path d="M23.75,10C23.75,8.619 24.869,7.5 26.25,7.5L30,7.5C31.381,7.5 32.5,8.619 32.5,10L32.5,30C32.5,31.381 31.381,32.5 30,32.5L26.25,32.5C24.869,32.5 23.75,31.381 23.75,30L23.75,10ZM30,10L26.25,10L26.25,30L30,30L30,10Z" style="fill:rgb(0,179,126);"/>
    <path d="M30,12.5C30,11.81 30.56,11.25 31.25,11.25L35,11.25C35.663,11.25 36.299,11.513 36.768,11.982C37.237,12.451 37.5,13.087 37.5,13.75L37.5,26.25C37.5,26.913 37.237,27.549 36.768,28.018C36.299,28.487 35.663,28.75 35,28.75L31.25,28.75C30.56,28.75 30,28.19 30,27.5C30,26.81 30.56,26.25 31.25,26.25L35,26.25L35,13.75L31.25,13.75C30.56,13.75 30,13.19 30,12.5Z" style="fill:rgb(0,179,126);"/>
    <path d="M3.232,11.982C3.701,11.513 4.337,11.25 5,11.25L8.75,11.25C9.44,11.25 10,11.81 10,12.5C10,13.19 9.44,13.75 8.75,13.75L5,13.75L5,26.25L8.75,26.25C9.44,26.25 10,26.81 10,27.5C10,28.19 9.44,28.75 8.75,28.75L5,28.75C4.337,28.75 3.701,28.487 3.232,28.018C2.763,27.549 2.5,26.913 2.5,26.25L2.5,13.75C2.5,13.087 2.763,12.451 3.232,11.982Z" style="fill:rgb(0,179,126);"/>
    <path d="M13.75,20C13.75,19.31 14.31,18.75 15,18.75L25,18.75C25.69,18.75 26.25,19.31 26.25,20C26.25,20.69 25.69,21.25 25,21.25L15,21.25C14.31,21.25 13.75,20.69 13.75,20Z" style="fill:rgb(0,179,126);"/>
    <path d="M35,20C35,19.31 35.56,18.75 36.25,18.75L38.75,18.75C39.44,18.75 40,19.31 40,20C40,20.69 39.44,21.25 38.75,21.25L36.25,21.25C35.56,21.25 35,20.69 35,20Z" style="fill:rgb(0,179,126);"/>
    <path d="M0,20C0,19.31 0.56,18.75 1.25,18.75L3.75,18.75C4.44,18.75 5,19.31 5,20C5,20.69 4.44,21.25 3.75,21.25L1.25,21.25C0.56,21.25 0,20.69 0,20Z" style="fill:rgb(0,179,126);"/>
    <g transform="matrix(1.09924,0,0,1.28571,-14.458,8.14286)">
        <g transform="matrix(1,0,0,1,6.36806,0)">
            <path d="M68.966,16.487C67.073,16.906 65.438,17.115 64.062,17.115C61.453,17.115 59.449,16.529 58.05,15.355C56.65,14.182 55.95,12.501 55.95,10.311C55.95,8.139 56.65,6.468 58.05,5.297C59.449,4.127 61.443,3.542 64.031,3.542C65.687,3.542 67.328,3.708 68.956,4.039L68.956,6.145C67.069,5.591 65.52,5.315 64.307,5.315C62.707,5.315 61.471,5.751 60.599,6.625C59.727,7.498 59.291,8.736 59.291,10.337C59.291,11.886 59.758,13.102 60.691,13.984C61.624,14.866 62.911,15.307 64.553,15.307C64.914,15.307 65.336,15.264 65.819,15.176L65.819,10.922L68.966,10.922L68.966,16.487Z" style="fill:white;fill-rule:nonzero;"/>
        </g>
        <g transform="matrix(1,0,0,1,5.45833,0)">
            <path d="M72.532,20.243L75.076,16.792L70.917,7.201L74.166,7.201L76.945,13.613L80.245,7.201L82.544,7.201L75.617,20.243L72.532,20.243Z" style="fill:white;fill-rule:nonzero;"/>
        </g>
        <g transform="matrix(1,0,0,1,4.54861,0)">
            <path d="M84.689,16.792L84.689,7.201L87.591,7.201L87.591,9.01C88.476,7.659 89.736,6.983 91.371,6.983C92.216,6.983 92.91,7.161 93.455,7.516C94,7.871 94.334,8.369 94.457,9.01C95.505,7.659 96.772,6.983 98.257,6.983C100.307,6.983 101.332,7.95 101.332,9.883L101.332,16.792L98.431,16.792L98.431,10.73C98.431,9.595 97.988,9.027 97.103,9.027C96.197,9.027 95.315,9.586 94.457,10.704L94.457,16.792L91.555,16.792L91.555,10.73C91.555,9.589 91.109,9.018 90.217,9.018C89.324,9.018 88.449,9.58 87.591,10.704L87.591,16.792L84.689,16.792Z" style="fill:white;fill-rule:nonzero;"/>
        </g>
        <path d="M112.029,16.792L106.441,3.865L109.802,3.865L114.134,13.866L118.323,3.865L120.591,3.865L115.186,16.792L112.029,16.792Z" style="fill:white;fill-rule:nonzero;"/>
        <path d="M122.695,16.792L122.695,7.201L125.719,7.201L125.719,16.792L122.695,16.792ZM122.695,5.586L122.695,3.428L125.719,3.428L125.719,5.586L122.695,5.586Z" style="fill:white;fill-rule:nonzero;"/>
        <path d="M135.282,16.74C134.56,16.92 133.991,17.011 133.576,17.011C130.954,17.011 129.643,15.962 129.643,13.866L129.643,8.817L128.386,8.817L128.386,7.201L129.643,7.201L129.643,5.586L132.667,5.289L132.667,7.201L135.068,7.201L135.068,8.817L132.667,8.817L132.667,13.525C132.667,14.702 133.229,15.29 134.352,15.29C134.611,15.29 134.921,15.249 135.282,15.168L135.282,16.74Z" style="fill:white;fill-rule:nonzero;"/>
        <path d="M143.476,15.762C142.468,16.594 141.388,17.011 140.237,17.011C139.256,17.011 138.459,16.754 137.846,16.242C137.233,15.73 136.927,15.066 136.927,14.25C136.927,13.191 137.422,12.374 138.413,11.8C139.404,11.227 140.823,10.94 142.669,10.94L143.476,10.94L143.476,10.066C143.476,9.071 142.812,8.573 141.484,8.573C140.305,8.573 139.113,8.858 137.908,9.429L137.908,7.647C139.277,7.204 140.632,6.983 141.974,6.983C144.91,6.983 146.377,7.982 146.377,9.979L146.377,14.224C146.377,14.975 146.66,15.351 147.225,15.351C147.327,15.351 147.46,15.339 147.624,15.316L147.695,16.766C147.055,16.929 146.49,17.011 145.999,17.011C144.76,17.011 143.963,16.594 143.609,15.762L143.476,15.762ZM143.476,14.373L143.476,12.425L142.761,12.425C140.806,12.425 139.828,12.949 139.828,13.997C139.828,14.352 139.97,14.651 140.252,14.892C140.535,15.134 140.884,15.255 141.3,15.255C142.008,15.255 142.733,14.961 143.476,14.373Z" style="fill:white;fill-rule:nonzero;"/>
        <rect x="150.28" y="3" width="3.024" height="13.792" style="fill:white;fill-rule:nonzero;"/>
        <path d="M157.084,16.792L157.084,7.201L160.108,7.201L160.108,16.792L157.084,16.792ZM157.084,5.586L157.084,3.428L160.108,3.428L160.108,5.586L157.084,5.586Z" style="fill:white;fill-rule:nonzero;"/>
        <path d="M169.671,16.74C168.949,16.92 168.38,17.011 167.965,17.011C165.343,17.011 164.032,15.962 164.032,13.866L164.032,8.817L162.775,8.817L162.775,7.201L164.032,7.201L164.032,5.586L167.056,5.289L167.056,7.201L169.457,7.201L169.457,8.817L167.056,8.817L167.056,13.525C167.056,14.702 167.618,15.29 168.741,15.29C169,15.29 169.31,15.249 169.671,15.168L169.671,16.74Z" style="fill:white;fill-rule:nonzero;"/>
        <path d="M172.409,20.243L174.953,16.792L170.795,7.201L174.044,7.201L176.823,13.613L180.123,7.201L182.422,7.201L175.495,20.243L172.409,20.243Z" style="fill:white;fill-rule:nonzero;"/>
    </g>
</svg>
